<svg id="Layer_1" data-name="Layer 1" xmlns="http://www.w3.org/2000/svg" preserveAspectRatio="xMidYMin slice" width="286px" height="40px" viewBox="0 0 286 40">
  <defs>
    <style>.cls-1{fill:#010101;}.cls-2{fill:#231f20;}</style>
  </defs>
  <title>Vector Smart Object</title>
  <path class="cls-1" d="M44.65,230.63v-4.06a13.63,13.63,0,0,0,7.22,2.18c3.25,0,5.13-1.32,5.13-4.1,0-6.24-12.09-4.14-12.09-13.2,0-4.74,3.2-7.69,8.54-7.69a15.64,15.64,0,0,1,6.45,1.37v4.1a12.21,12.21,0,0,0-6.19-2c-2.9,0-4.78,1.41-4.78,3.93,0,6,12.13,3.8,12.13,13.15,0,5.3-3.46,7.94-9.05,7.94A16,16,0,0,1,44.65,230.63Z" transform="translate(-44.65 -201.87)"/>
  <path class="cls-1" d="M64.77,222.47c0-6,3.42-10.16,9.44-10.16s9,4,9,9.44a13.19,13.19,0,0,1-.13,1.92H68.74c.3,3.63,2.82,5.3,7,5.3a13.09,13.09,0,0,0,6.71-1.71v3.42a16.46,16.46,0,0,1-7.3,1.58C68.53,232.25,64.77,228.79,64.77,222.47Zm14.56-1.58a4.87,4.87,0,0,0-5.12-5.38c-3,0-5.17,2.14-5.38,5.38Z" transform="translate(-44.65 -201.87)"/>
  <path class="cls-1" d="M84.46,212.69h4.23l5.72,12.56,5.72-12.56h4.1l-9.61,19.56H94.2Z" transform="translate(-44.65 -201.87)"/>
  <path class="cls-1" d="M105.47,222.47c0-6,3.42-10.16,9.44-10.16s9,4,9,9.44a13.19,13.19,0,0,1-.13,1.92H109.45c.3,3.63,2.82,5.3,7,5.3a13.09,13.09,0,0,0,6.71-1.71v3.42a16.46,16.46,0,0,1-7.3,1.58C109.23,232.25,105.47,228.79,105.47,222.47ZM120,220.89a4.87,4.87,0,0,0-5.12-5.38c-3,0-5.17,2.14-5.38,5.38Z" transform="translate(-44.65 -201.87)"/>
  <path class="cls-1" d="M128.67,212.69h3.5l.09,2.56c1.15-2,3.42-2.95,6.28-2.95,4.78,0,7.35,2.61,7.35,8.29v11.28H142V221.32c0-3-.6-5.72-4.44-5.72s-5.08,2.95-5.08,7.3v9h-3.84Z" transform="translate(-44.65 -201.87)"/>
  <path class="cls-1" d="M152,204.19h16.44v3.42H156v9h9.18V220H156v11.87h-4Z" transform="translate(-44.65 -201.87)"/>
  <path class="cls-1" d="M173.43,226.7V215.81h-2.95v-3.12h6.79v14c0,1.49.34,2.31,1.79,2.31a3.65,3.65,0,0,0,1.15-.17v2.95a6.39,6.39,0,0,1-2.18.34C173.85,232.08,173.43,229.52,173.43,226.7Zm-.64-20.84a2.55,2.55,0,0,1,2.56-2.61,2.53,2.53,0,0,1,2.56,2.61,2.56,2.56,0,0,1-5.13,0Z" transform="translate(-44.65 -201.87)"/>
  <path class="cls-1" d="M186.45,215.81h-3.29v-3.12h3.29v-1.75c0-5,1.84-8,6.71-8a6.64,6.64,0,0,1,2.56.38v3.33a4.28,4.28,0,0,0-1.88-.38c-2.26,0-3.55,1.24-3.55,4.57v1.84h4.23v3.12H190.3v16.06h-3.84Zm12.9,9.87v-9.87H197v-.38a46.18,46.18,0,0,0,5.85-8h.38v5.25h5.47v3.12h-5.47v9.27c0,2.39.43,3.93,3.12,3.93a7.89,7.89,0,0,0,3.16-.68v3.25a9.94,9.94,0,0,1-3.93.68C201,232.25,199.35,229.86,199.35,225.68Z" transform="translate(-44.65 -201.87)"/>
  <path class="cls-1" d="M219.21,230.8l-7.86-18.11h4.23l5.68,13.84L227,212.69h4.14l-12,27.63H215Z" transform="translate(-44.65 -201.87)"/>
  <path class="cls-2" d="M234.77,204.16c.29,0,.45-.07.61-.07,5.09,0,10.18-.09,15.26.07a12.33,12.33,0,0,1,9.62,4.39,11.69,11.69,0,0,1,2.48,6,18.69,18.69,0,0,1-.71,8.64c-1.57,4.57-4.89,7.17-9.53,8.13a27.21,27.21,0,0,1-5,.52c-3.93.07-7.86,0-11.8,0h-1.06c.78-1,1.49-1.9,2.11-2.82a2.58,2.58,0,0,0,.45-1.33q0-9.76,0-19.51a2.76,2.76,0,0,0-.49-1.41C236.16,205.91,235.48,205.09,234.77,204.16Zm11.37,13.75c0,4,0,8.09,0,12.14,0,.32.24.85.48.91a4.28,4.28,0,0,0,4.54-1.82,8.93,8.93,0,0,0,1.09-2.71,44.22,44.22,0,0,0,.55-12.08,31.49,31.49,0,0,0-1-6.21c-.64-2.32-2.2-3.23-4.62-3.27-.8,0-1.11.2-1.1,1.07C246.16,209.93,246.14,213.92,246.14,217.91Z" transform="translate(-44.65 -201.87)"/>
  <path class="cls-2" d="M284.68,228.49a3.64,3.64,0,0,1-3.36,3.54c-2.6.42-5.37-.3-6.26-3.24-.16.26-.29.48-.42.69a5.58,5.58,0,0,1-5,2.66,4.89,4.89,0,0,1-4.72-2.67c-1.68-3.41-.61-8.09,4.61-9a9.52,9.52,0,0,1,5.84.79c-.13-2.42-.18-4.69-.41-6.93a2.52,2.52,0,0,0-1.07-1.47c-.73-.52-1.39-.27-1.85.52l-3.54,6.11-2.95-6.13c1.6-.39,3.1-.83,4.63-1.12a17.77,17.77,0,0,1,8.16.08,5.81,5.81,0,0,1,4.64,5.49c.15,2.21,0,4.44-.06,6.66,0,1-.13,2-.09,3C282.84,228.88,283.4,229.18,284.68,228.49Zm-9.61-3.58h.09c0-.84,0-1.67,0-2.5,0-.63-.22-.79-.8-.79a2.32,2.32,0,0,0-2.34,1.56,5.79,5.79,0,0,0-.16,4.21,1.88,1.88,0,0,0,.69,1,2.55,2.55,0,0,0,1.58.25,1.2,1.2,0,0,0,.94-1.36C275,226.53,275.08,225.72,275.08,224.91Z" transform="translate(-44.65 -201.87)"/>
  <path class="cls-2" d="M311.81,233.2l4.61,3.67c.79.62.9.56,1.49-.22a2.9,2.9,0,0,0,.36-3.23c-2.44-5.93-4.71-11.92-7.07-17.87-.44-1.12-1-2.19-1.54-3.38h11.61c-.47.8-.93,1.49-1.29,2.22a1.67,1.67,0,0,0-.15,1.13c1.08,3.23,2.2,6.44,3.31,9.66,0,.11.1.2.22.45l.64-1.39c.64-1.42,1.25-2.86,1.92-4.27a2.13,2.13,0,0,0,0-1.9c-.82-1.93-1.56-3.9-2.36-5.93h7.06a1.64,1.64,0,0,1-.08.37c-3,6.33-5.85,12.69-8.91,19a54.8,54.8,0,0,1-4.43,7.42c-1.54,2.19-4.28,2.78-7,1.84Z" transform="translate(-44.65 -201.87)"/>
  <path class="cls-2" d="M298.24,231.81a2.5,2.5,0,0,1,.29-.44c1.37-1.25,1.6-2.82,1.57-4.62-.09-6.18-.06-12.37,0-18.55a3.94,3.94,0,0,0-1-3,13.67,13.67,0,0,1-.88-1.14l9.9-1.2v1.2c0,8,0,16,0,23.93a3.37,3.37,0,0,0,.93,2.57,15.72,15.72,0,0,1,1,1.24Z" transform="translate(-44.65 -201.87)"/>
  <path class="cls-2" d="M285.76,212.13h9.86v1c0,4.94,0,9.88,0,14.83a3.26,3.26,0,0,0,.87,2.51,16.5,16.5,0,0,1,1,1.32H285.75a17.62,17.62,0,0,0,1.32-1.75,3.4,3.4,0,0,0,.53-1.57c0-4.13,0-8.27,0-12.4a3.43,3.43,0,0,0-.87-2.6A14.84,14.84,0,0,1,285.76,212.13Z" transform="translate(-44.65 -201.87)"/>
  <rect class="cls-2" x="288.29" y="203.14" width="6.45" height="6.45" rx="0.14" ry="0.14" transform="translate(-105.19 64.72) rotate(-45)"/>
</svg>
