<svg xmlns="http://www.w3.org/2000/svg" viewBox="0 0 420 81.52"><defs><style>.cls-1{fill:#aa1117;}.cls-2{fill:#534741;}</style></defs><title>Asset 29</title><g id="Layer_2" data-name="Layer 2"><g id="Layer_1-2" data-name="Layer 1"><path class="cls-1" d="M21,0V7H14V56.13H7V7H0V0Z"/><path class="cls-1" d="M31.57,14V0h7V14h7V0h7V14h3.51v7H52.62V56.13h-7V21h-7V56.13h-7V21H28.07V14Z"/><path class="cls-1" d="M84.2,0V7H73.67v7h14v7h-14V49.12H84.2v7H66.66V21H63.15V14h3.51V0Z"/><path class="cls-1" d="M138.08,0V7H127.56v7h14v7h-14V56.13h-7V21H117V14h3.51V0Z"/><path class="cls-1" d="M169.66,0V7H159.13v7h14v7h-14V49.12h10.52v7H152.11V21h-3.51V14h3.51V0Z"/><path class="cls-1" d="M180.18,0h7V56.13h-7Z"/><path class="cls-1" d="M201.23,42.1v14h-7V0a25.8,25.8,0,0,1,17.37,6.16q7.19,6.15,7.19,14.89t-7.19,14.87a26,26,0,0,1-5.3,3.54l12.49,16.67h-7Zm0-34V34a18,18,0,0,0,5.4-3q5.12-4.1,5.12-9.93t-5.12-9.93A18.19,18.19,0,0,0,201.23,8.14Z"/><path class="cls-1" d="M225.79,0h7V56.13h-7Z"/><path class="cls-1" d="M246.84,10.52V56.13h-7V0h7l10.52,14V0h7V56.13h-7V24.55Z"/><path class="cls-1" d="M296,56.13q-10.17,0-17.37-8.22a29.11,29.11,0,0,1-7.19-19.84,29.11,29.11,0,0,1,7.19-19.84Q285.78,0,296,0V7q-7.26,0-12.4,6.16a22.46,22.46,0,0,0-5.14,14.89,22.36,22.36,0,0,0,5.16,14.87,17.42,17.42,0,0,0,5.37,4.49V35.08h7Z"/><path class="cls-1" d="M332.3,0V49.12h10.52v7H325.28V0Z"/><path class="cls-1" d="M349.84,0h7V56.13h-7Z"/><path class="cls-1" d="M370.89,10.52V56.13h-7V0h7l10.52,14V0h7V56.13h-7V24.55Z"/><path class="cls-1" d="M416.49,0V7H406v7h14v7H406V49.12h10.52v7H399V21h-3.51V14H399V0Z"/><path class="cls-2" d="M87,76.45a1,1,0,0,1,1-1,1,1,0,0,1,1,1,1.05,1.05,0,0,1-1,1.06A1.07,1.07,0,0,1,87,76.45Z"/><path class="cls-2" d="M330.88,76.45a1,1,0,0,1,1-1,1,1,0,0,1,1,1,1.05,1.05,0,0,1-1,1.06A1.07,1.07,0,0,1,330.88,76.45Z"/><path class="cls-2" d="M101,70.47h-3.7V69.33H106v1.13h-3.7V81.37H101Z"/><path class="cls-2" d="M106.55,72.45h1.26v4.82h4.43V72.45h1.26v8.93h-1.26v-3h-4.43v3h-1.26Z"/><path class="cls-2" d="M116.15,72.45h5.65v1.1h-4.39V77.2h3.86v1h-3.86v2.05H122v1.08h-5.83Z"/><path class="cls-2" d="M130,73c-.34-.41-.83-1.12-.83-1.12s.11.85.11,1.36v8.13h-1.2V69.21h.21l7.19,8.5c.34.41.83,1.12.83,1.12s-.09-.85-.09-1.36V69.33h1.19V81.5h-.21Z"/><path class="cls-2" d="M143.42,72.34h.18l3.84,9h-1.31L145.6,80h-4.25l-.53,1.33h-1.22Zm1.79,6.75-1.28-3.22a12.33,12.33,0,0,1-.44-1.38s-.21.83-.43,1.38l-1.31,3.22Z"/><path class="cls-2" d="M150.33,73.55h-2.76v-1.1h6.78v1.1h-2.76v7.83h-1.26Z"/><path class="cls-2" d="M156.26,78.2V72.45h1.26v5.7c0,1.56.78,2.27,2.09,2.27s2.11-.71,2.11-2.27v-5.7H163V78.2a3.35,3.35,0,0,1-6.69,0Z"/><path class="cls-2" d="M171.84,81.37h-1.42L168.8,79a4,4,0,0,1-.81.07h-1.19v2.3h-1.26V72.45H168c2.39,0,3.75,1.33,3.75,3.31a3,3,0,0,1-1.79,2.87ZM167.93,78c1.84,0,2.53-.92,2.53-2.23s-.69-2.21-2.53-2.21h-1.13V78Z"/><path class="cls-2" d="M177,72.34h.18l3.84,9h-1.31L179.21,80H175l-.53,1.33H173.2Zm1.79,6.75-1.27-3.22a12.33,12.33,0,0,1-.44-1.38s-.21.83-.43,1.38l-1.31,3.22Z"/><path class="cls-2" d="M183,72.45h1.26v7.83h4.16v1.1H183Z"/><path class="cls-2" d="M193.3,69.33h1.36l2.53,8c.16.53.34,1.31.34,1.31s.2-.8.39-1.31l3.14-8.15h.21l3.14,8.15c.19.51.39,1.31.39,1.31s.18-.8.34-1.31l2.52-8h1.29L205,81.5h-.21l-3.24-8.57a10.08,10.08,0,0,1-.35-1.19,12.25,12.25,0,0,1-.37,1.19L197.5,81.5h-.21Z"/><path class="cls-2" d="M210.23,72.45h1.24v8.93h-1.24Z"/><path class="cls-2" d="M216.18,76.08a11.85,11.85,0,0,1-1-1.24,11.84,11.84,0,0,1,.12,1.5v5h-1.17v-9h.18l4.87,5.37a11.24,11.24,0,0,1,1,1.26s-.09-.81-.09-1.49v-5h1.17v9h-.18Z"/><path class="cls-2" d="M223.94,72.45h5.65v1.1h-4.39V77.2h3.86v1h-3.86v2.05h4.57v1.08h-5.83Z"/><path class="cls-2" d="M237.8,73c-.34-.41-.83-1.12-.83-1.12s.11.85.11,1.36v8.13h-1.2V69.21h.21l7.19,8.5c.34.41.83,1.12.83,1.12S244,78,244,77.46V69.33h1.19V81.5H245Z"/><path class="cls-2" d="M248.18,72.45h5.65v1.1h-4.39V77.2h3.86v1h-3.86v2.05H254v1.08h-5.83Z"/><path class="cls-2" d="M255.42,72.45h1.35l1.63,4.92c.2.58.37,1.47.37,1.47a9.25,9.25,0,0,1,.42-1.47l2-5h.16l2.05,5a10,10,0,0,1,.46,1.47,12.67,12.67,0,0,1,.35-1.47l1.63-4.91h1.26l-3,9h-.16l-2.21-5.37a11.3,11.3,0,0,1-.41-1.28,10.31,10.31,0,0,1-.41,1.28l-2.25,5.37h-.18Z"/><path class="cls-2" d="M268.15,79.6l1-.57a2.39,2.39,0,0,0,2.27,1.42c1,0,1.74-.53,1.74-1.35s-.48-1.24-1.61-1.74l-.71-.32c-1.26-.53-2.05-1.22-2.05-2.52a2.27,2.27,0,0,1,2.5-2.23,2.84,2.84,0,0,1,2.57,1.35l-.94.64a1.82,1.82,0,0,0-1.59-.94c-.8,0-1.33.43-1.33,1.17s.39,1,1.26,1.43l.73.32c1.51.66,2.43,1.38,2.43,2.82s-1.19,2.43-3,2.43A3.53,3.53,0,0,1,268.15,79.6Z"/><path class="cls-2" d="M276.51,72.45h1.26v7.83h4.16v1.1h-5.42Z"/><path class="cls-2" d="M284,72.45h5.65v1.1h-4.39V77.2h3.86v1h-3.86v2.05h4.57v1.08H284Z"/><path class="cls-2" d="M294.15,73.55h-2.76v-1.1h6.78v1.1h-2.76v7.83h-1.26Z"/><path class="cls-2" d="M302.33,73.55h-2.76v-1.1h6.78v1.1h-2.76v7.83h-1.26Z"/><path class="cls-2" d="M308.33,72.45H314v1.1h-4.39V77.2h3.86v1h-3.86v2.05h4.57v1.08h-5.83Z"/><path class="cls-2" d="M322.71,81.37h-1.42L319.66,79a4,4,0,0,1-.81.07h-1.19v2.3H316.4V72.45h2.44c2.39,0,3.75,1.33,3.75,3.31a3,3,0,0,1-1.79,2.87ZM318.8,78c1.84,0,2.53-.92,2.53-2.23s-.69-2.21-2.53-2.21h-1.13V78Z"/></g></g></svg>