<svg height="479pt" viewBox="0 1 479 479.99958" width="479pt" xmlns="http://www.w3.org/2000/svg"><g fill="#9fe0f6"><path d="m392.480469 144c-3.839844.007812-7.144531-2.714844-7.871094-6.484375s1.328125-7.527344 4.894531-8.945313c26.988282-10.078124 56.128906-12.976562 84.574219-8.410156 4.195313.992188 6.851563 5.128906 6.007813 9.355469-.847657 4.226563-4.890626 7.023437-9.144532 6.324219-25.386718-3.894532-51.351562-1.28125-75.453125 7.59375-.957031.378906-1.980469.570312-3.007812.566406zm0 0"/><path d="m456.480469 208c-1.664063 0-3.289063-.519531-4.640625-1.488281-36.226563-25.871094-66.066406-22.613281-66.34375-22.574219-4.332032.46875-8.242188-2.605469-8.800782-6.925781-.558593-4.320313 2.4375-8.292969 6.742188-8.9375 1.449219-.210938 36-4.363281 77.699219 25.421875 2.824219 2.023437 4.019531 5.640625 2.957031 8.949218-1.0625 3.308594-4.140625 5.554688-7.613281 5.554688zm0 0"/><path d="m344.480469 96c-.539063.003906-1.074219-.050781-1.601563-.160156-4.332031-.882813-7.125-5.109375-6.238281-9.4375 4.242187-22.632813 4.265625-45.851563.078125-68.488282-.71875-2.78125.109375-5.734374 2.167969-7.734374 2.058593-2.003907 5.035156-2.75 7.792969-1.953126 2.757812.792969 4.882812 3.007813 5.558593 5.796876 4.824219 24.9375 4.851563 50.566406.082031 75.511718-.734374 3.753906-4.019531 6.460938-7.839843 6.464844zm0 0"/><path d="m304.480469 104c-.46875 0-.933594-.039062-1.394531-.121094-4.3125-.757812-7.214844-4.84375-6.511719-9.167968.082031-.613282 2.6875-22.636719-22.613281-58.0625-2.433594-3.59375-1.554688-8.46875 1.976562-10.992188 3.53125-2.519531 8.425781-1.769531 11.039062 1.695312 29.894532 41.839844 25.597657 68.90625 25.375 70.03125-.671874 3.824219-3.992187 6.613282-7.871093 6.617188zm0 0"/><path d="m376.480469 112c-3.238281 0-6.152344-1.949219-7.390625-4.9375-1.238282-2.988281-.554688-6.429688 1.734375-8.71875l8-8c3.136719-3.03125 8.128906-2.988281 11.214843.097656 3.085938 3.085938 3.128907 8.074219.097657 11.214844l-8 8c-1.5 1.5-3.535157 2.34375-5.65625 2.34375zm0 0"/></g><path d="m369.519531 156.160156-83.679687 83.761719c-10.789063 10.726563-18.261719 24.335937-21.519532 39.199219l-8.160156 36.480468-72.082031-12.722656c-3.332031-.53125-5.945313-3.144531-6.480469-6.476562l-12.71875-72.082032 36.480469-8.160156c14.863281-3.257812 28.472656-10.730468 39.199219-21.519531l83.761718-83.679687c3.117188-3.101563 8.160157-3.101563 11.277344 0l33.921875 33.917968c3.101563 3.121094 3.101563 8.160156 0 11.28125zm0 0" fill="#ffcc5c"/><path d="m256.160156 315.601562-1.359375 6.238282c-5.289062 23.746094-17.21875 45.5-34.402343 62.722656l-20.480469 20.558594c-3.519531-3.519532-14.480469-14.878906-16.878907-17.28125-5.640624-6.023438-9.851562-13.242188-12.320312-21.121094-4.480469-13.261719-12.050781-25.269531-22.078125-35.039062-9.804687-9.675782-21.636719-17.054688-34.640625-21.597657-7.992188-2.617187-15.3125-6.960937-21.441406-12.722656-2.398438-2.398437-13.679688-13.277344-17.121094-16.796875l20.480469-20.480469c17.222656-17.183593 38.976562-29.113281 62.722656-34.402343l6.238281-1.359376 12.71875 72.082032c.535156 3.332031 3.148438 5.945312 6.480469 6.476562zm0 0" fill="#006837"/><path d="m154.398438 450.640625-22.398438 22.320313c-9.390625 9.386718-24.609375 9.386718-34 0l-90.480469-90.480469c-9.359375-9.402344-9.359375-24.597657 0-34l22.320313-22.320313c3.519531 3.441406 14.480468 14.800782 16.800781 17.121094 5.761719 6.109375 10.082031 13.4375 12.636719 21.4375 4.613281 12.992188 12.011718 24.816406 21.683594 34.640625 9.765624 10.03125 21.773437 17.597656 35.039062 22.082031 7.894531 2.464844 15.121094 6.707032 21.117188 12.398438 2.402343 2.402344 13.761718 13.28125 17.28125 16.800781zm0 0" fill="#006837"/><path d="m199.917969 405.121094-45.519531 45.519531c-3.519532-3.519531-14.878907-14.398437-17.28125-16.800781-5.996094-5.691406-13.222657-9.933594-21.117188-12.398438-13.265625-4.484375-25.273438-12.050781-35.039062-22.082031-9.671876-9.824219-17.070313-21.648437-21.683594-34.640625-2.554688-8-6.875-15.328125-12.636719-21.4375-2.320313-2.320312-13.28125-13.679688-16.800781-17.121094l45.597656-45.597656c3.441406 3.519531 14.722656 14.398438 17.121094 16.796875 6.128906 5.761719 13.449218 10.105469 21.441406 12.722656 13.003906 4.542969 24.835938 11.921875 34.640625 21.597657 10.027344 9.769531 17.597656 21.777343 22.078125 35.039062 2.46875 7.878906 6.679688 15.097656 12.320312 21.121094 2.398438 2.402344 13.359376 13.761718 16.878907 17.28125zm0 0" fill="#ffcc5c"/><path d="m233.757812 280.640625c-9.367187 9.382813-24.570312 9.386719-33.945312.015625-9.378906-9.375-9.378906-24.578125 0-33.949219 9.375-9.375 24.578125-9.367187 33.945312.011719 9.359376 9.371094 9.359376 24.550781 0 33.921875zm0 0" fill="#f15a24"/><path d="m390.941406 66.914062 22.625 22.621094c3.125 3.125 8.1875 3.125 11.3125 0l22.632813-22.621094-33.945313-33.945312-22.625 22.632812c-3.121094 3.121094-3.121094 8.1875 0 11.3125zm0 0" fill="#754c24"/><path d="m475.789062 38.625-33.933593-33.9375c-6.25-6.25-16.382813-6.25-22.632813 0l-11.3125 11.3125c-3.121094 3.125-3.121094 8.1875 0 11.3125l45.257813 45.257812c3.121093 3.121094 8.1875 3.121094 11.3125 0l11.308593-11.3125c6.253907-6.25 6.253907-16.382812 0-22.632812zm0 0" fill="#754c24"/><path d="m402.257812 44.289062 11.3125-11.3125 33.941407 33.941407-11.3125 11.3125zm0 0" fill="#603813"/></svg>