<?xml version="1.0" encoding="iso-8859-1"?>
<!-- Generator: Adobe Illustrator 19.0.0, SVG Export Plug-In . SVG Version: 6.00 Build 0)  -->
<svg version="1.1" id="Capa_1" xmlns="http://www.w3.org/2000/svg" xmlns:xlink="http://www.w3.org/1999/xlink" x="0px" y="0px"
	 viewBox="0 0 512 512" style="enable-background:new 0 0 512 512;" xml:space="preserve">
<polygon style="fill:#D1D3D4;" points="137.502,140.984 64,140.984 10,468.995 502,468.995 448,140.984 376.322,140.984 "/>
<polygon style="fill:#75D888;" points="163.512,180.482 106.143,180.482 63.996,429.497 448.005,429.497 405.857,180.482 
	349.912,180.482 "/>
<path style="fill:#E24050;" d="M371.995,159c0-64.055-51.94-115.995-115.995-115.995S140.006,94.945,140.006,159
	c0,1.127,0.02,2.25,0.052,3.369C142.263,274.851,256,365.505,256,365.505s113.713-90.646,115.942-203.121
	C371.974,161.26,371.995,160.132,371.995,159z"/>
<circle style="fill:#FFFFFF;" cx="255.94" cy="142.06" r="61.938"/>
<path d="M256.367,194.005h-0.166c-0.01,0-0.02,0-0.03,0c-5.509,0-9.983,4.458-9.999,9.971c-0.016,5.522,4.448,10.013,9.971,10.029
	h0.166c0.01,0,0.02,0,0.03,0c5.509,0,9.983-4.458,10-9.971C266.354,198.512,261.89,194.021,256.367,194.005z"/>
<path d="M222.244,205.469c4.867,2.614,10.928,0.785,13.541-4.082c2.612-4.866,0.785-10.928-4.082-13.541
	c-16.931-9.088-27.449-26.653-27.449-45.842c0-28.673,23.327-52,52-52s52,23.327,52,52c0,19.798-11.006,37.617-28.725,46.504
	c-4.937,2.476-6.931,8.485-4.455,13.422c1.754,3.498,5.282,5.519,8.946,5.519c1.507,0,3.037-0.342,4.476-1.063
	c24.523-12.3,39.758-36.969,39.758-64.381c0-39.701-32.299-72-72-72s-72,32.299-72,72
	C184.254,168.573,198.811,192.891,222.244,205.469z"/>
<path d="M511.867,467.371l-54-328.011c-0.795-4.831-4.971-8.375-9.867-8.375h-69.149C366.078,74.949,315.847,33.005,256,33.005
	s-110.078,41.944-122.851,97.979H64c-4.896,0-9.072,3.545-9.867,8.375l-54,328.011c-0.477,2.897,0.343,5.857,2.243,8.096
	c1.9,2.238,4.688,3.529,7.624,3.529h492c2.936,0,5.724-1.291,7.624-3.529S512.344,470.268,511.867,467.371z M256,53.005
	c58.446,0,105.995,47.549,105.995,105.995c0,1.037-0.019,2.068-0.051,3.186c-1.094,55.191-31.273,105.187-56.398,137.409
	c-19.831,25.432-39.753,44.142-49.546,52.778c-9.796-8.639-29.721-27.349-49.554-52.783
	c-25.127-32.225-55.308-82.223-56.392-137.508c-0.029-1.024-0.048-2.051-0.048-3.082C150.006,100.554,197.554,53.005,256,53.005z
	 M21.781,458.995l50.708-308.011h57.779c-0.167,2.652-0.262,5.323-0.262,8.016c0,1.224,0.021,2.442,0.054,3.565
	c0.055,2.794,0.184,5.602,0.374,8.419H97.953c-4.896,0-9.072,3.545-9.867,8.375L47.256,427.37c-0.477,2.897,0.343,5.857,2.243,8.096
	c1.9,2.238,4.688,3.529,7.624,3.529h164.544c5.523,0,10-4.477,10-10s-4.477-10-10-10H68.904l37.538-228.011h26.435
	c6.987,39.778,26.745,81.184,58.101,121.292c29.1,37.223,57.591,60.093,58.79,61.048c1.824,1.454,4.028,2.18,6.233,2.18
	s4.41-0.727,6.233-2.18c1.198-0.956,29.683-23.823,58.78-61.043c31.368-40.125,51.132-81.55,58.114-121.297h26.431l37.538,228.011
	H290.75c-5.523,0-10,4.477-10,10s4.477,10,10,10h164.127c2.936,0,5.724-1.291,7.624-3.529s2.72-5.199,2.243-8.096l-40.83-248.011
	c-0.795-4.831-4.971-8.375-9.867-8.375h-32.479c0.187-2.782,0.316-5.555,0.37-8.314c0.035-1.22,0.057-2.443,0.057-3.671
	c0-2.693-0.095-5.364-0.262-8.016h57.779l50.708,308.011L21.781,458.995L21.781,458.995z"/>
<path d="M256.334,418.995H256c-5.523,0-10,4.477-10,10s4.477,10,10,10h0.333c5.523,0,10-4.477,10-10
	S261.857,418.995,256.334,418.995z"/>
<g>
</g>
<g>
</g>
<g>
</g>
<g>
</g>
<g>
</g>
<g>
</g>
<g>
</g>
<g>
</g>
<g>
</g>
<g>
</g>
<g>
</g>
<g>
</g>
<g>
</g>
<g>
</g>
<g>
</g>
</svg>
