<svg id="Layer_1" enable-background="new 0 0 511.45 511.45" height="512" viewBox="0 0 511.45 511.45" width="512" xmlns="http://www.w3.org/2000/svg"><g><g id="XMLID_285_"><g><path d="m332.797 511.45c-13.46 0-24.371-10.912-24.371-24.372v-194.82c0-13.46 10.911-24.372 24.371-24.372s24.371 10.911 24.371 24.372v194.82c0 13.461-10.911 24.372-24.371 24.372z" fill="#1e2124"/></g></g><path d="m406.467 145.206c-.132-26.37-21.857-47.823-48.429-47.823h-25.844l-28.904 5.405-13.852 98.021 13.04 91.22h54.69v-52.413h27.665c11.948 0 21.634-9.686 21.634-21.634v-72.675c0-.033 0-.067 0-.101zm-49.299 53.342v-60.547h.87c4.203 0 7.773 3.376 7.81 7.379v53.168z" fill="#373c41"/><g><path d="m169.687 218.858-5.358-20.31h-12.169l-4.133 20.31 4.133 20.309h12.169z" fill="#fff"/></g><circle cx="302.378" cy="42.096" fill="#ba6746" r="42.096"/><g id="XMLID_284_"><path d="m273.954 511.45c-13.46 0-24.371-10.912-24.371-24.372v-194.82c0-13.46 10.911-24.372 24.371-24.372s24.371 10.911 24.371 24.372v194.82c.001 13.461-10.911 24.372-24.371 24.372z" fill="#373c41"/></g><g><path d="m152.16 198.548c-11.217 0-20.31 9.093-20.31 20.31s9.093 20.31 20.31 20.31z" fill="#ba6746"/></g><g><path d="m274.386 97.382h-26.101c-26.571 0-48.297 21.453-48.429 47.823v.102 53.241h-35.528v40.619l54.78-.04c11.803-.009 21.367-9.58 21.367-21.383v-72.364c.037-4.003 3.607-7.379 7.81-7.379h1.298v154.028h52.895c.744-173.363.808-188.19.812-189.178 0 .001 0 .001 0-.001 0-.008 0-.015 0-.021v.006c0-.008 0-.02 0-.035 0-.004 0-.007 0-.009v-.003z" fill="#50555a"/></g><g><path d="m311.166 97.382-7.876 2.779-8.588-2.779h-20.316s6.547 39.111 21.075 50.166c4.341 3.959 10.955 4.052 15.406.217l.252-.217c14.529-11.055 21.075-50.166 21.075-50.166z" fill="#fff"/></g><g><path d="m320.85 92.752-17.688 5.657-17.688-5.657c-2.231-.713-4.51.951-4.51 3.293v15.05c0 2.342 2.28 4.006 4.51 3.293l17.688-5.656 17.688 5.656c2.231.713 4.51-.951 4.51-3.293v-15.05c0-2.342-2.28-4.007-4.51-3.293z" fill="#1e2124"/></g><g><path d="m190.773 206.209h-75.79c-5.523 0-10-4.477-10-10s4.477-10 10-10h75.79c5.523 0 10 4.477 10 10s-4.477 10-10 10z" fill="#55879b"/></g><g><g><path d="m126.378 145.797h12v39.444h-12z" fill="#a5c8cd"/></g><g><path d="m142.041 189.178h-19.326c-3.313 0-6-2.686-6-6s2.687-6 6-6h19.326c3.313 0 6 2.686 6 6s-2.687 6-6 6z" fill="#a5c8cd"/></g><g><path d="m167.378 145.797h12v39.444h-12z" fill="#a5c8cd"/></g><g><path d="m183.041 189.178h-19.326c-3.313 0-6-2.686-6-6s2.687-6 6-6h19.326c3.313 0 6 2.686 6 6s-2.687 6-6 6z" fill="#a5c8cd"/></g><g fill="#a5c8cd"><path d="m116.285 104.028v30.547c0 8.888 7.205 16.092 16.092 16.092 8.888 0 16.092-7.205 16.092-16.092v-30.547c0-2.202-1.785-3.987-3.987-3.987h-24.211c-2.201 0-3.986 1.785-3.986 3.987z"/><path d="m157.285 104.028v30.547c0 8.888 7.205 16.092 16.092 16.092 8.888 0 16.092-7.205 16.092-16.092v-30.547c0-2.202-1.785-3.987-3.987-3.987h-24.211c-2.201 0-3.986 1.785-3.986 3.987z"/></g></g></g></svg>